<svg xmlns="http://www.w3.org/2000/svg" xmlns:xlink="http://www.w3.org/1999/xlink" width="793" zoomAndPan="magnify" viewBox="0 0 595.5 842.249979" height="1122" preserveAspectRatio="xMidYMid meet" version="1.0"><defs><clipPath id="be8faea095"><path d="M 0.015625 0 L 594.984375 0 L 594.984375 841.5 L 0.015625 841.5 Z M 0.015625 0 " clip-rule="nonzero"/></clipPath><clipPath id="f64b69a107"><path d="M 196.644531 0 L 396 0 L 396 252.523438 L 196.644531 252.523438 Z M 196.644531 0 " clip-rule="nonzero"/></clipPath><clipPath id="6247374e1c"><path d="M 196.644531 200 L 396 200 L 396 252.523438 L 196.644531 252.523438 Z M 196.644531 200 " clip-rule="nonzero"/></clipPath><clipPath id="b0e546174a"><path d="M 395 0 L 594.542969 0 L 594.542969 252.523438 L 395 252.523438 Z M 395 0 " clip-rule="nonzero"/></clipPath><clipPath id="625ebccb8b"><path d="M 395 200 L 594.542969 200 L 594.542969 252.523438 L 395 252.523438 Z M 395 200 " clip-rule="nonzero"/></clipPath><clipPath id="dcc4260119"><path d="M 0.015625 0 L 199 0 L 199 252.523438 L 0.015625 252.523438 Z M 0.015625 0 " clip-rule="nonzero"/></clipPath><clipPath id="3f6e084a3a"><path d="M 0.015625 200 L 199 200 L 199 252.523438 L 0.015625 252.523438 Z M 0.015625 200 " clip-rule="nonzero"/></clipPath><clipPath id="ad6659a53c"><path d="M 198 0 L 397.910156 0 L 397.910156 252.523438 L 198 252.523438 Z M 198 0 " clip-rule="nonzero"/></clipPath><clipPath id="5342e011cf"><path d="M 198 200 L 397.910156 200 L 397.910156 252.523438 L 198 252.523438 Z M 198 200 " clip-rule="nonzero"/></clipPath><clipPath id="5df1fedb43"><path d="M 0.015625 193 L 594.984375 193 L 594.984375 841 L 0.015625 841 Z M 0.015625 193 " clip-rule="nonzero"/></clipPath><clipPath id="c3dad1889c"><path d="M 0.015625 789 L 594.984375 789 L 594.984375 841 L 0.015625 841 Z M 0.015625 789 " clip-rule="nonzero"/></clipPath><clipPath id="8bb7e96d5e"><path d="M 76.15625 37.460938 L 120.367188 37.460938 L 120.367188 81.671875 L 76.15625 81.671875 Z M 76.15625 37.460938 " clip-rule="nonzero"/></clipPath><clipPath id="e31a66f1a5"><path d="M 275.375 37.460938 L 319.585938 37.460938 L 319.585938 81.671875 L 275.375 81.671875 Z M 275.375 37.460938 " clip-rule="nonzero"/></clipPath><clipPath id="87c58ef18b"><path d="M 473.574219 37.460938 L 517.785156 37.460938 L 517.785156 81.671875 L 473.574219 81.671875 Z M 473.574219 37.460938 " clip-rule="nonzero"/></clipPath><clipPath id="010c48a446"><path d="M 76.15625 230.789062 L 120.367188 230.789062 L 120.367188 275 L 76.15625 275 Z M 76.15625 230.789062 " clip-rule="nonzero"/></clipPath><clipPath id="d51bc7a103"><path d="M 275.375 230.789062 L 319.585938 230.789062 L 319.585938 275 L 275.375 275 Z M 275.375 230.789062 " clip-rule="nonzero"/></clipPath><clipPath id="633ededf5f"><path d="M 76.15625 617.074219 L 120.367188 617.074219 L 120.367188 661.285156 L 76.15625 661.285156 Z M 76.15625 617.074219 " clip-rule="nonzero"/></clipPath><clipPath id="46136e9b5a"><path d="M 275.375 617.074219 L 319.585938 617.074219 L 319.585938 661.285156 L 275.375 661.285156 Z M 275.375 617.074219 " clip-rule="nonzero"/></clipPath><clipPath id="0723dd5470"><path d="M 473.574219 617.074219 L 517.785156 617.074219 L 517.785156 661.285156 L 473.574219 661.285156 Z M 473.574219 617.074219 " clip-rule="nonzero"/></clipPath></defs><g clip-path="url(#be8faea095)"><path fill="#ffffff" d="M 0.015625 0 L 594.984375 0 L 594.984375 841.5 L 0.015625 841.5 Z M 0.015625 0 " fill-opacity="1" fill-rule="nonzero"/><path fill="#ffffff" d="M 0.015625 0 L 594.984375 0 L 594.984375 841.5 L 0.015625 841.5 Z M 0.015625 0 " fill-opacity="1" fill-rule="nonzero"/></g><g clip-path="url(#f64b69a107)"><path fill="#cccccc" d="M 395.59375 0.144531 L 395.59375 252.382812 L 196.660156 252.382812 L 196.660156 0.144531 L 395.59375 0.144531 " fill-opacity="1" fill-rule="evenodd"/></g><path fill="#999999" d="M 214.84375 18.3125 L 377.410156 18.3125 L 377.410156 180.789062 L 214.84375 180.789062 L 214.84375 18.3125 " fill-opacity="1" fill-rule="evenodd"/><path fill="#cccccc" d="M 361.632812 91.945312 C 365.835938 91.945312 369.242188 95.351562 369.242188 99.550781 C 369.242188 103.75 365.835938 107.15625 361.632812 107.15625 C 357.429688 107.15625 354.023438 103.75 354.023438 99.550781 C 354.023438 95.351562 357.429688 91.945312 361.632812 91.945312 " fill-opacity="1" fill-rule="evenodd"/><g clip-path="url(#6247374e1c)"><path fill="#999999" d="M 196.660156 200.449219 L 395.59375 200.449219 L 395.59375 252.382812 L 196.660156 252.382812 L 196.660156 200.449219 " fill-opacity="1" fill-rule="evenodd"/></g><path fill="#cccccc" d="M 217.628906 217.695312 L 374.625 217.695312 C 376.460938 217.695312 377.964844 219.199219 377.964844 221.035156 L 377.964844 231.792969 C 377.964844 233.628906 376.460938 235.128906 374.625 235.128906 L 217.628906 235.128906 C 215.789062 235.128906 214.289062 233.628906 214.289062 231.792969 L 214.289062 221.035156 C 214.289062 219.199219 215.789062 217.695312 217.628906 217.695312 " fill-opacity="1" fill-rule="evenodd"/><g clip-path="url(#b0e546174a)"><path fill="#cccccc" d="M 594.53125 0.144531 L 594.53125 252.382812 L 395.59375 252.382812 L 395.59375 0.144531 L 594.53125 0.144531 " fill-opacity="1" fill-rule="evenodd"/></g><path fill="#999999" d="M 413.78125 18.3125 L 576.34375 18.3125 L 576.34375 180.789062 L 413.78125 180.789062 L 413.78125 18.3125 " fill-opacity="1" fill-rule="evenodd"/><path fill="#cccccc" d="M 560.570312 91.945312 C 564.769531 91.945312 568.175781 95.351562 568.175781 99.550781 C 568.175781 103.75 564.769531 107.15625 560.570312 107.15625 C 556.367188 107.15625 552.960938 103.75 552.960938 99.550781 C 552.960938 95.351562 556.367188 91.945312 560.570312 91.945312 " fill-opacity="1" fill-rule="evenodd"/><g clip-path="url(#625ebccb8b)"><path fill="#999999" d="M 395.59375 200.449219 L 594.53125 200.449219 L 594.53125 252.382812 L 395.59375 252.382812 L 395.59375 200.449219 " fill-opacity="1" fill-rule="evenodd"/></g><path fill="#cccccc" d="M 416.5625 217.695312 L 573.5625 217.695312 C 575.398438 217.695312 576.898438 219.199219 576.898438 221.035156 L 576.898438 231.792969 C 576.898438 233.628906 575.398438 235.128906 573.5625 235.128906 L 416.5625 235.128906 C 414.726562 235.128906 413.222656 233.628906 413.222656 231.792969 L 413.222656 221.035156 C 413.222656 219.199219 414.726562 217.695312 416.5625 217.695312 " fill-opacity="1" fill-rule="evenodd"/><g clip-path="url(#dcc4260119)"><path fill="#cccccc" d="M 198.964844 0.144531 L 198.964844 252.382812 L 0.0273438 252.382812 L 0.0273438 0.144531 L 198.964844 0.144531 " fill-opacity="1" fill-rule="evenodd"/></g><path fill="#999999" d="M 18.214844 18.3125 L 180.777344 18.3125 L 180.777344 180.789062 L 18.214844 180.789062 L 18.214844 18.3125 " fill-opacity="1" fill-rule="evenodd"/><path fill="#cccccc" d="M 165.003906 91.945312 C 169.203125 91.945312 172.609375 95.351562 172.609375 99.550781 C 172.609375 103.75 169.203125 107.15625 165.003906 107.15625 C 160.800781 107.15625 157.394531 103.75 157.394531 99.550781 C 157.394531 95.351562 160.800781 91.945312 165.003906 91.945312 " fill-opacity="1" fill-rule="evenodd"/><g clip-path="url(#3f6e084a3a)"><path fill="#999999" d="M 0.0273438 200.449219 L 198.964844 200.449219 L 198.964844 252.382812 L 0.0273438 252.382812 L 0.0273438 200.449219 " fill-opacity="1" fill-rule="evenodd"/></g><path fill="#cccccc" d="M 20.996094 217.695312 L 177.992188 217.695312 C 179.832031 217.695312 181.332031 219.199219 181.332031 221.035156 L 181.332031 231.792969 C 181.332031 233.628906 179.832031 235.128906 177.992188 235.128906 L 20.996094 235.128906 C 19.160156 235.128906 17.65625 233.628906 17.65625 231.792969 L 17.65625 221.035156 C 17.65625 219.199219 19.160156 217.695312 20.996094 217.695312 " fill-opacity="1" fill-rule="evenodd"/><g clip-path="url(#ad6659a53c)"><path fill="#cccccc" d="M 397.898438 0.144531 L 397.898438 252.382812 L 198.964844 252.382812 L 198.964844 0.144531 L 397.898438 0.144531 " fill-opacity="1" fill-rule="evenodd"/></g><path fill="#999999" d="M 217.148438 18.3125 L 379.714844 18.3125 L 379.714844 180.789062 L 217.148438 180.789062 L 217.148438 18.3125 " fill-opacity="1" fill-rule="evenodd"/><path fill="#cccccc" d="M 363.9375 91.945312 C 368.140625 91.945312 371.546875 95.351562 371.546875 99.550781 C 371.546875 103.75 368.140625 107.15625 363.9375 107.15625 C 359.738281 107.15625 356.328125 103.75 356.328125 99.550781 C 356.328125 95.351562 359.738281 91.945312 363.9375 91.945312 " fill-opacity="1" fill-rule="evenodd"/><g clip-path="url(#5342e011cf)"><path fill="#999999" d="M 198.964844 200.449219 L 397.898438 200.449219 L 397.898438 252.382812 L 198.964844 252.382812 L 198.964844 200.449219 " fill-opacity="1" fill-rule="evenodd"/></g><path fill="#cccccc" d="M 219.933594 217.695312 L 376.929688 217.695312 C 378.765625 217.695312 380.269531 219.199219 380.269531 221.035156 L 380.269531 231.792969 C 380.269531 233.628906 378.765625 235.128906 376.929688 235.128906 L 219.933594 235.128906 C 218.09375 235.128906 216.59375 233.628906 216.59375 231.792969 L 216.59375 221.035156 C 216.59375 219.199219 218.09375 217.695312 219.933594 217.695312 " fill-opacity="1" fill-rule="evenodd"/><g clip-path="url(#5df1fedb43)"><path fill="#cccccc" d="M 198.339844 840.976562 L 0.015625 840.976562 L 0.015625 193.027344 L 594.988281 193.027344 L 594.988281 840.976562 L 198.339844 840.976562 " fill-opacity="1" fill-rule="evenodd"/></g><path fill="#999999" d="M 18.144531 211.148438 L 180.207031 211.148438 L 180.207031 373.136719 L 18.144531 373.136719 L 18.144531 211.148438 " fill-opacity="1" fill-rule="evenodd"/><path fill="#cccccc" d="M 164.480469 293.253906 C 168.671875 293.253906 172.066406 296.648438 172.066406 300.835938 C 172.066406 305.023438 168.671875 308.417969 164.480469 308.417969 C 160.292969 308.417969 156.898438 305.023438 156.898438 300.835938 C 156.898438 296.648438 160.292969 293.253906 164.480469 293.253906 " fill-opacity="1" fill-rule="evenodd"/><path fill="#999999" d="M 18.144531 571.367188 L 180.207031 571.367188 L 180.207031 409.382812 L 18.144531 409.382812 L 18.144531 571.367188 " fill-opacity="1" fill-rule="evenodd"/><path fill="#999999" d="M 18.144531 607.613281 L 180.207031 607.613281 L 180.207031 769.601562 L 18.144531 769.601562 L 18.144531 607.613281 " fill-opacity="1" fill-rule="evenodd"/><path fill="#cccccc" d="M 164.480469 482.792969 C 168.671875 482.792969 172.066406 486.1875 172.066406 490.375 C 172.066406 494.5625 168.671875 497.957031 164.480469 497.957031 C 160.292969 497.957031 156.898438 494.5625 156.898438 490.375 C 156.898438 486.1875 160.292969 482.792969 164.480469 482.792969 " fill-opacity="1" fill-rule="evenodd"/><path fill="#cccccc" d="M 164.480469 681.027344 C 168.671875 681.027344 172.066406 684.417969 172.066406 688.605469 C 172.066406 692.792969 168.671875 696.1875 164.480469 696.1875 C 160.292969 696.1875 156.898438 692.792969 156.898438 688.605469 C 156.898438 684.417969 160.292969 681.027344 164.480469 681.027344 " fill-opacity="1" fill-rule="evenodd"/><path fill="#999999" d="M 216.46875 211.148438 L 378.53125 211.148438 L 378.53125 373.136719 L 216.46875 373.136719 L 216.46875 211.148438 " fill-opacity="1" fill-rule="evenodd"/><path fill="#cccccc" d="M 362.804688 293.253906 C 366.992188 293.253906 370.390625 296.648438 370.390625 300.835938 C 370.390625 305.023438 366.992188 308.417969 362.804688 308.417969 C 358.613281 308.417969 355.21875 305.023438 355.21875 300.835938 C 355.21875 296.648438 358.613281 293.253906 362.804688 293.253906 " fill-opacity="1" fill-rule="evenodd"/><path fill="#999999" d="M 216.46875 571.367188 L 378.53125 571.367188 L 378.53125 409.382812 L 216.46875 409.382812 L 216.46875 571.367188 " fill-opacity="1" fill-rule="evenodd"/><path fill="#999999" d="M 216.46875 607.613281 L 378.53125 607.613281 L 378.53125 769.601562 L 216.46875 769.601562 L 216.46875 607.613281 " fill-opacity="1" fill-rule="evenodd"/><path fill="#cccccc" d="M 362.804688 482.792969 C 366.992188 482.792969 370.390625 486.1875 370.390625 490.375 C 370.390625 494.5625 366.992188 497.957031 362.804688 497.957031 C 358.613281 497.957031 355.21875 494.5625 355.21875 490.375 C 355.21875 486.1875 358.613281 482.792969 362.804688 482.792969 " fill-opacity="1" fill-rule="evenodd"/><path fill="#cccccc" d="M 362.804688 681.027344 C 366.992188 681.027344 370.390625 684.417969 370.390625 688.605469 C 370.390625 692.792969 366.992188 696.1875 362.804688 696.1875 C 358.613281 696.1875 355.21875 692.792969 355.21875 688.605469 C 355.21875 684.417969 358.613281 681.027344 362.804688 681.027344 " fill-opacity="1" fill-rule="evenodd"/><path fill="#999999" d="M 414.792969 211.148438 L 576.855469 211.148438 L 576.855469 373.136719 L 414.792969 373.136719 L 414.792969 211.148438 " fill-opacity="1" fill-rule="evenodd"/><path fill="#cccccc" d="M 561.128906 293.253906 C 565.320312 293.253906 568.714844 296.648438 568.714844 300.835938 C 568.714844 305.023438 565.320312 308.417969 561.128906 308.417969 C 556.941406 308.417969 553.546875 305.023438 553.546875 300.835938 C 553.546875 296.648438 556.941406 293.253906 561.128906 293.253906 " fill-opacity="1" fill-rule="evenodd"/><path fill="#999999" d="M 414.792969 571.367188 L 576.855469 571.367188 L 576.855469 409.382812 L 414.792969 409.382812 L 414.792969 571.367188 " fill-opacity="1" fill-rule="evenodd"/><path fill="#999999" d="M 414.792969 607.613281 L 576.855469 607.613281 L 576.855469 769.601562 L 414.792969 769.601562 L 414.792969 607.613281 " fill-opacity="1" fill-rule="evenodd"/><path fill="#cccccc" d="M 561.128906 482.792969 C 565.320312 482.792969 568.714844 486.1875 568.714844 490.375 C 568.714844 494.5625 565.320312 497.957031 561.128906 497.957031 C 556.941406 497.957031 553.546875 494.5625 553.546875 490.375 C 553.546875 486.1875 556.941406 482.792969 561.128906 482.792969 " fill-opacity="1" fill-rule="evenodd"/><path fill="#cccccc" d="M 561.128906 681.027344 C 565.320312 681.027344 568.714844 684.417969 568.714844 688.605469 C 568.714844 692.792969 565.320312 696.1875 561.128906 696.1875 C 556.941406 696.1875 553.546875 692.792969 553.546875 688.605469 C 553.546875 684.417969 556.941406 681.027344 561.128906 681.027344 " fill-opacity="1" fill-rule="evenodd"/><g clip-path="url(#c3dad1889c)"><path fill="#999999" d="M 396.660156 789.199219 L 594.988281 789.199219 L 594.988281 840.976562 L 0.0117188 840.976562 L 0.0117188 789.199219 L 396.660156 789.199219 " fill-opacity="1" fill-rule="evenodd"/></g><path fill="#cccccc" d="M 25.886719 806.398438 L 569.109375 806.398438 C 570.941406 806.398438 572.441406 807.898438 572.441406 809.726562 L 572.441406 820.453125 C 572.441406 822.28125 570.941406 823.777344 569.109375 823.777344 L 25.886719 823.777344 C 24.058594 823.777344 22.558594 822.28125 22.558594 820.453125 L 22.558594 809.726562 C 22.558594 807.898438 24.058594 806.398438 25.886719 806.398438 " fill-opacity="1" fill-rule="evenodd"/><g clip-path="url(#8bb7e96d5e)"><path fill="#d9d9d9" d="M 98.167969 37.460938 C 86.0625 37.460938 76.15625 47.367188 76.15625 59.472656 C 76.15625 71.582031 86.0625 81.484375 98.167969 81.484375 C 110.277344 81.484375 120.179688 71.582031 120.179688 59.472656 C 120.179688 47.367188 110.277344 37.460938 98.167969 37.460938 Z M 101.03125 69.601562 L 97.070312 69.601562 L 97.070312 53.972656 L 92.226562 55.511719 L 92.226562 52.210938 L 100.589844 49.128906 L 101.03125 49.128906 Z M 101.03125 69.601562 " fill-opacity="1" fill-rule="nonzero"/></g><g clip-path="url(#e31a66f1a5)"><path fill="#d9d9d9" d="M 297.386719 37.460938 C 285.230469 37.460938 275.375 47.320312 275.375 59.472656 C 275.375 71.628906 285.230469 81.484375 297.386719 81.484375 C 309.542969 81.484375 319.398438 71.628906 319.398438 59.472656 C 319.398438 47.320312 309.542969 37.460938 297.386719 37.460938 Z M 304.019531 68.644531 L 290.96875 68.644531 L 290.96875 66 L 296.875 60.222656 C 299.421875 57.738281 300.058594 56.796875 300.058594 55.617188 C 300.058594 54.164062 298.878906 53.136719 297.222656 53.136719 C 295.46875 53.136719 294.265625 54.289062 294.265625 55.957031 L 294.265625 56.03125 L 290.753906 56.03125 L 290.753906 55.96875 C 290.753906 52.472656 293.4375 50.089844 297.351562 50.089844 C 301.125 50.089844 303.757812 52.257812 303.757812 55.367188 C 303.757812 57.335938 302.691406 59.027344 299.558594 61.976562 L 296.097656 65.273438 L 296.097656 65.5 L 304.019531 65.5 Z M 304.019531 68.644531 " fill-opacity="1" fill-rule="nonzero"/></g><g clip-path="url(#87c58ef18b)"><path fill="#d9d9d9" d="M 495.585938 37.460938 C 483.429688 37.460938 473.574219 47.320312 473.574219 59.472656 C 473.574219 71.628906 483.429688 81.484375 495.585938 81.484375 C 507.742188 81.484375 517.597656 71.628906 517.597656 59.472656 C 517.597656 47.320312 507.742188 37.460938 495.585938 37.460938 Z M 495.496094 68.984375 C 491.460938 68.984375 488.726562 66.753906 488.5625 63.34375 L 492.1875 63.34375 C 492.300781 64.871094 493.59375 65.835938 495.535156 65.835938 C 497.429688 65.835938 498.746094 64.773438 498.746094 63.230469 C 498.746094 61.648438 497.503906 60.671875 495.472656 60.671875 L 493.230469 60.671875 L 493.230469 57.847656 L 495.4375 57.847656 C 497.15625 57.847656 498.320312 56.847656 498.320312 55.367188 C 498.320312 53.910156 497.191406 52.984375 495.421875 52.984375 C 493.667969 52.984375 492.5 53.972656 492.402344 55.542969 L 488.902344 55.542969 C 489.027344 52.117188 491.574219 49.960938 495.523438 49.960938 C 499.234375 49.960938 501.90625 51.992188 501.90625 54.839844 C 501.90625 56.933594 500.589844 58.5625 498.570312 58.976562 L 498.570312 59.203125 C 501.054688 59.476562 502.609375 61.132812 502.609375 63.515625 C 502.609375 66.691406 499.625 68.984375 495.496094 68.984375 Z M 495.496094 68.984375 " fill-opacity="1" fill-rule="nonzero"/></g><g clip-path="url(#010c48a446)"><path fill="#d9d9d9" d="M 98.167969 230.789062 C 86.011719 230.789062 76.15625 240.648438 76.15625 252.800781 C 76.15625 264.957031 86.011719 274.8125 98.167969 274.8125 C 110.324219 274.8125 120.179688 264.957031 120.179688 252.800781 C 120.179688 240.648438 110.324219 230.789062 98.167969 230.789062 Z M 96.996094 243.757812 L 102.300781 243.757812 L 102.300781 255.542969 L 104.667969 255.542969 L 104.667969 258.6875 L 102.300781 258.6875 L 102.300781 261.847656 L 98.683594 261.847656 L 98.683594 258.6875 L 89.832031 258.6875 L 89.832031 255.34375 C 91.464844 252.269531 93.824219 248.53125 96.996094 243.757812 Z M 98.574219 246.703125 C 96.917969 249.171875 95.300781 251.703125 93.234375 255.453125 L 93.234375 255.65625 L 98.773438 255.65625 L 98.773438 246.703125 Z M 98.574219 246.703125 " fill-opacity="1" fill-rule="nonzero"/></g><g clip-path="url(#d51bc7a103)"><path fill="#d9d9d9" d="M 297.386719 230.789062 C 285.230469 230.789062 275.375 240.648438 275.375 252.800781 C 275.375 264.957031 285.230469 274.8125 297.386719 274.8125 C 309.542969 274.8125 319.398438 264.957031 319.398438 252.800781 C 319.398438 240.648438 309.542969 230.789062 297.386719 230.789062 Z M 297.292969 262.1875 C 293.359375 262.1875 290.675781 259.820312 290.558594 256.582031 L 294.058594 256.582031 C 294.269531 258.085938 295.601562 259.089844 297.316406 259.089844 C 299.261719 259.089844 300.601562 257.785156 300.601562 255.816406 C 300.601562 253.824219 299.25 252.496094 297.332031 252.496094 C 295.925781 252.496094 294.859375 253.109375 294.234375 254.125 L 290.847656 254.125 L 291.75 243.632812 L 303.125 243.632812 L 303.125 246.777344 L 294.683594 246.777344 L 294.28125 251.429688 L 294.507812 251.429688 C 295.273438 250.328125 296.550781 249.664062 298.34375 249.664062 C 301.78125 249.664062 304.214844 252.183594 304.214844 255.730469 C 304.214844 259.566406 301.445312 262.1875 297.292969 262.1875 Z M 297.292969 262.1875 " fill-opacity="1" fill-rule="nonzero"/></g><path fill="#d9d9d9" d="M 495.585938 252.621094 C 493.933594 252.621094 493.203125 253.902344 493.203125 254.269531 L 493.203125 255.371094 C 493.203125 257.9375 494.300781 259.039062 495.769531 259.039062 C 497.96875 259.039062 498.152344 256.472656 498.152344 255.921875 C 498.152344 255.1875 497.96875 252.621094 495.585938 252.621094 Z M 495.585938 252.621094 " fill-opacity="1" fill-rule="nonzero"/><path fill="#d9d9d9" d="M 495.585938 234.460938 C 485.496094 234.460938 477.242188 242.714844 477.242188 252.800781 C 477.242188 262.890625 485.496094 271.144531 495.585938 271.144531 C 505.675781 271.144531 513.929688 262.890625 513.929688 252.800781 C 513.929688 242.714844 505.675781 234.460938 495.585938 234.460938 Z M 495.769531 261.425781 C 491.550781 261.425781 489.714844 257.9375 489.714844 254.636719 L 489.714844 253.351562 C 489.714844 251.152344 490.449219 244.179688 498.335938 243.996094 L 498.886719 243.996094 L 498.886719 246.75 L 498.703125 246.75 C 496.503906 246.75 493.75 247.667969 493.203125 251.152344 C 493.386719 250.96875 494.484375 249.683594 496.6875 249.683594 C 501.273438 249.683594 501.457031 254.636719 501.457031 255.371094 C 501.457031 259.40625 498.703125 261.425781 495.769531 261.425781 Z M 495.769531 261.425781 " fill-opacity="1" fill-rule="nonzero"/><path fill="#d9d9d9" d="M 98.167969 427.601562 C 88.082031 427.601562 79.828125 435.855469 79.828125 445.945312 C 79.828125 456.03125 88.082031 464.285156 98.167969 464.285156 C 108.257812 464.285156 116.511719 456.03125 116.511719 445.945312 C 116.511719 435.855469 108.257812 427.601562 98.167969 427.601562 Z M 104.589844 439.339844 L 97.984375 454.382812 L 94.5 454.382812 L 101.105469 440.074219 L 92.484375 440.074219 L 92.484375 437.507812 L 104.40625 437.507812 L 104.40625 439.339844 Z M 104.589844 439.339844 " fill-opacity="1" fill-rule="nonzero"/><path fill="#d9d9d9" d="M 495.585938 439.890625 C 493.386719 439.890625 493.203125 442.640625 493.203125 443.191406 C 493.203125 443.558594 493.203125 446.308594 495.585938 446.308594 C 497.054688 446.308594 497.605469 445.210938 497.96875 444.84375 L 497.96875 443.375 C 497.96875 443.007812 497.789062 439.890625 495.585938 439.890625 Z M 495.585938 439.890625 " fill-opacity="1" fill-rule="nonzero"/><path fill="#d9d9d9" d="M 495.585938 427.601562 C 485.496094 427.601562 477.242188 435.855469 477.242188 445.945312 C 477.242188 456.03125 485.496094 464.285156 495.585938 464.285156 C 505.675781 464.285156 513.929688 456.03125 513.929688 445.945312 C 513.929688 435.855469 505.675781 427.601562 495.585938 427.601562 Z M 501.273438 445.394531 C 501.273438 454.015625 494.667969 454.566406 492.652344 454.566406 L 492.46875 454.566406 L 492.46875 451.8125 L 492.652344 451.8125 C 497.605469 451.8125 497.789062 448.328125 497.96875 447.59375 C 497.605469 447.960938 496.503906 448.878906 494.851562 448.878906 C 493.386719 448.878906 489.898438 448.144531 489.898438 443.191406 C 489.898438 440.441406 491.734375 437.140625 495.585938 437.140625 C 499.988281 437.140625 501.273438 441.359375 501.273438 444.109375 Z M 501.273438 445.394531 " fill-opacity="1" fill-rule="nonzero"/><path fill="#d9d9d9" d="M 297.386719 447.042969 C 295.1875 447.042969 295.003906 449.0625 295.003906 449.429688 C 295.003906 451.8125 297.019531 451.8125 297.386719 451.8125 C 298.488281 451.8125 299.773438 451.261719 299.773438 449.429688 C 299.773438 449.246094 299.589844 447.042969 297.386719 447.042969 Z M 297.386719 447.042969 " fill-opacity="1" fill-rule="nonzero"/><path fill="#d9d9d9" d="M 297.386719 444.292969 C 299.039062 444.292969 299.40625 442.640625 299.40625 442.089844 C 299.40625 441.359375 299.222656 439.890625 297.386719 439.890625 C 295.554688 439.890625 295.371094 441.359375 295.371094 442.089844 C 295.371094 442.824219 295.554688 444.292969 297.386719 444.292969 Z M 297.386719 444.292969 " fill-opacity="1" fill-rule="nonzero"/><path fill="#d9d9d9" d="M 297.386719 427.601562 C 287.300781 427.601562 279.042969 435.855469 279.042969 445.945312 C 279.042969 456.03125 287.300781 464.285156 297.386719 464.285156 C 307.476562 464.285156 315.730469 456.03125 315.730469 445.945312 C 315.730469 435.855469 307.476562 427.601562 297.386719 427.601562 Z M 297.386719 454.566406 C 292.25 454.566406 291.703125 451.078125 291.703125 449.613281 C 291.703125 447.042969 293.535156 445.945312 294.453125 445.578125 C 293.71875 445.210938 292.066406 444.109375 292.066406 441.910156 C 292.066406 437.871094 295.554688 437.140625 297.386719 437.140625 C 301.789062 437.140625 302.707031 440.074219 302.707031 441.910156 C 302.707031 444.109375 301.054688 445.210938 300.324219 445.578125 C 301.054688 445.945312 303.074219 447.226562 303.074219 449.613281 C 303.074219 454.015625 299.222656 454.566406 297.386719 454.566406 Z M 297.386719 454.566406 " fill-opacity="1" fill-rule="nonzero"/><path fill="#d9d9d9" d="M 104.058594 631.058594 C 102.75 631.058594 101.761719 631.6875 101.09375 632.949219 C 100.425781 634.210938 100.089844 636.273438 100.089844 639.128906 C 100.089844 641.9375 100.425781 643.953125 101.09375 645.183594 C 101.761719 646.410156 102.753906 647.023438 104.074219 647.023438 C 105.390625 647.023438 106.375 646.414062 107.019531 645.1875 C 107.664062 643.964844 107.988281 641.945312 107.988281 639.128906 C 107.988281 636.253906 107.660156 634.1875 107.003906 632.9375 C 106.351562 631.683594 105.367188 631.058594 104.058594 631.058594 Z M 104.058594 631.058594 " fill-opacity="1" fill-rule="nonzero"/><g clip-path="url(#633ededf5f)"><path fill="#d9d9d9" d="M 98.167969 617.074219 C 86.011719 617.074219 76.15625 626.929688 76.15625 639.085938 C 76.15625 651.242188 86.011719 661.097656 98.167969 661.097656 C 110.324219 661.097656 120.179688 651.242188 120.179688 639.085938 C 120.179688 626.929688 110.324219 617.074219 98.167969 617.074219 Z M 91.96875 649.679688 L 88.492188 649.679688 L 88.492188 633.332031 L 84.734375 633.332031 L 84.734375 631.203125 C 85.921875 631.203125 86.863281 631.097656 87.558594 630.890625 C 88.253906 630.679688 88.765625 630.367188 89.089844 629.957031 C 89.410156 629.546875 89.59375 629.046875 89.640625 628.460938 L 91.96875 628.460938 Z M 109.59375 647.222656 C 108.25 649.074219 106.40625 650.003906 104.058594 650.003906 C 101.714844 650.003906 99.867188 649.078125 98.527344 647.230469 C 97.183594 645.378906 96.515625 642.683594 96.515625 639.144531 C 96.515625 636.757812 96.824219 634.75 97.441406 633.121094 C 98.058594 631.492188 98.929688 630.257812 100.0625 629.421875 C 101.195312 628.585938 102.53125 628.167969 104.074219 628.167969 C 106.394531 628.167969 108.226562 629.097656 109.578125 630.960938 C 110.929688 632.824219 111.605469 635.542969 111.605469 639.113281 C 111.605469 642.664062 110.933594 645.367188 109.59375 647.222656 Z M 109.59375 647.222656 " fill-opacity="1" fill-rule="nonzero"/></g><g clip-path="url(#46136e9b5a)"><path fill="#d9d9d9" d="M 297.386719 617.074219 C 285.230469 617.074219 275.375 626.929688 275.375 639.085938 C 275.375 651.242188 285.230469 661.097656 297.386719 661.097656 C 309.542969 661.097656 319.398438 651.242188 319.398438 639.085938 C 319.398438 626.929688 309.542969 617.074219 297.386719 617.074219 Z M 295.417969 648.367188 L 292.375 648.367188 L 292.375 634.0625 L 289.085938 634.0625 L 289.085938 632.203125 C 290.125 632.203125 290.949219 632.109375 291.558594 631.925781 C 292.167969 631.742188 292.613281 631.46875 292.894531 631.109375 C 293.179688 630.75 293.339844 630.316406 293.382812 629.800781 L 295.417969 629.800781 Z M 305.691406 648.367188 L 302.644531 648.367188 L 302.644531 634.0625 L 299.355469 634.0625 L 299.355469 632.203125 C 300.394531 632.203125 301.21875 632.109375 301.832031 631.925781 C 302.441406 631.742188 302.886719 631.46875 303.167969 631.109375 C 303.449219 630.75 303.613281 630.316406 303.652344 629.800781 L 305.691406 629.800781 Z M 305.691406 648.367188 " fill-opacity="1" fill-rule="nonzero"/></g><g clip-path="url(#0723dd5470)"><path fill="#d9d9d9" d="M 495.585938 617.074219 C 483.429688 617.074219 473.574219 626.929688 473.574219 639.085938 C 473.574219 651.242188 483.429688 661.097656 495.585938 661.097656 C 507.742188 661.097656 517.597656 651.242188 517.597656 639.085938 C 517.597656 626.929688 507.742188 617.074219 495.585938 617.074219 Z M 490.347656 648.496094 L 487.300781 648.496094 L 487.300781 634.191406 L 484.011719 634.191406 L 484.011719 632.332031 C 485.050781 632.332031 485.875 632.238281 486.488281 632.054688 C 487.097656 631.871094 487.542969 631.597656 487.824219 631.238281 C 488.105469 630.878906 488.269531 630.445312 488.308594 629.929688 L 490.347656 629.929688 Z M 507.160156 648.496094 L 494.640625 648.496094 L 494.640625 645.96875 C 494.640625 645.015625 494.808594 644.199219 495.144531 643.507812 C 495.480469 642.820312 495.925781 642.21875 496.480469 641.703125 C 497.039062 641.191406 497.648438 640.734375 498.316406 640.335938 C 498.984375 639.9375 499.644531 639.5625 500.304688 639.207031 C 500.964844 638.851562 501.570312 638.484375 502.128906 638.101562 C 502.683594 637.722656 503.132812 637.296875 503.472656 636.824219 C 503.808594 636.355469 503.980469 635.792969 503.980469 635.144531 C 503.980469 634.3125 503.699219 633.632812 503.140625 633.109375 C 502.578125 632.582031 501.820312 632.316406 500.863281 632.316406 C 499.847656 632.316406 499.011719 632.621094 498.351562 633.230469 C 497.695312 633.835938 497.304688 634.695312 497.179688 635.796875 L 494.285156 635.796875 C 494.300781 634.667969 494.558594 633.640625 495.058594 632.714844 C 495.558594 631.792969 496.296875 631.054688 497.28125 630.5 C 498.261719 629.949219 499.484375 629.671875 500.949219 629.671875 C 502.21875 629.671875 503.3125 629.902344 504.230469 630.359375 C 505.152344 630.816406 505.863281 631.457031 506.367188 632.273438 C 506.871094 633.089844 507.121094 634.042969 507.121094 635.128906 C 507.121094 636.082031 506.957031 636.894531 506.625 637.570312 C 506.292969 638.246094 505.855469 638.832031 505.3125 639.324219 C 504.765625 639.816406 504.171875 640.25 503.519531 640.625 C 502.871094 641.003906 502.21875 641.355469 501.570312 641.683594 C 500.917969 642.015625 500.320312 642.355469 499.777344 642.710938 C 499.234375 643.066406 498.796875 643.472656 498.464844 643.925781 C 498.132812 644.378906 497.964844 644.921875 497.964844 645.554688 L 497.964844 645.824219 L 507.160156 645.824219 Z M 507.160156 648.496094 " fill-opacity="1" fill-rule="nonzero"/></g></svg>